<mxfile host="app.diagrams.net" modified="2024-06-21T16:48:19.273Z" agent="Mozilla/5.0 (X11; Linux x86_64) AppleWebKit/537.36 (KHTML, like Gecko) Chrome/126.0.0.0 Safari/537.36" etag="EziFN-x88X3bYgSanSdK" version="24.6.1" type="github">
  <diagram name="Page-1" id="1t4B85zT-pd5tq2HTVPx">
    <mxGraphModel dx="920" dy="870" grid="1" gridSize="10" guides="1" tooltips="1" connect="1" arrows="1" fold="1" page="1" pageScale="1" pageWidth="827" pageHeight="1169" math="0" shadow="0">
      <root>
        <mxCell id="0" />
        <mxCell id="1" parent="0" />
        <mxCell id="aWloOFPCooBZCWccYhwp-22" style="edgeStyle=orthogonalEdgeStyle;rounded=0;orthogonalLoop=1;jettySize=auto;html=1;" edge="1" parent="1" source="aWloOFPCooBZCWccYhwp-10" target="aWloOFPCooBZCWccYhwp-1">
          <mxGeometry relative="1" as="geometry" />
        </mxCell>
        <mxCell id="aWloOFPCooBZCWccYhwp-10" value="" style="whiteSpace=wrap;html=1;shape=mxgraph.basic.oval_callout" vertex="1" parent="1">
          <mxGeometry x="200" y="210" width="100" height="60" as="geometry" />
        </mxCell>
        <mxCell id="aWloOFPCooBZCWccYhwp-11" value="User prompts API via voice command" style="text;html=1;align=center;verticalAlign=middle;whiteSpace=wrap;rounded=0;" vertex="1" parent="1">
          <mxGeometry x="210" y="160" width="130" height="70" as="geometry" />
        </mxCell>
        <mxCell id="aWloOFPCooBZCWccYhwp-15" value="" style="group" vertex="1" connectable="0" parent="1">
          <mxGeometry x="340" width="198" height="92" as="geometry" />
        </mxCell>
        <mxCell id="aWloOFPCooBZCWccYhwp-14" value="" style="group" vertex="1" connectable="0" parent="aWloOFPCooBZCWccYhwp-15">
          <mxGeometry y="20" width="198" height="72" as="geometry" />
        </mxCell>
        <mxCell id="aWloOFPCooBZCWccYhwp-3" value="" style="rounded=0;whiteSpace=wrap;html=1;" vertex="1" parent="aWloOFPCooBZCWccYhwp-14">
          <mxGeometry x="78" y="6" width="120" height="60" as="geometry" />
        </mxCell>
        <mxCell id="aWloOFPCooBZCWccYhwp-4" value="" style="sketch=0;outlineConnect=0;fontColor=#232F3E;gradientColor=none;fillColor=#E7157B;strokeColor=none;dashed=0;verticalLabelPosition=bottom;verticalAlign=top;align=center;html=1;fontSize=12;fontStyle=0;aspect=fixed;pointerEvents=1;shape=mxgraph.aws4.systems_manager_change_calendar;" vertex="1" parent="aWloOFPCooBZCWccYhwp-14">
          <mxGeometry width="78" height="72" as="geometry" />
        </mxCell>
        <mxCell id="aWloOFPCooBZCWccYhwp-5" value="Google Calendar API" style="text;html=1;align=center;verticalAlign=middle;whiteSpace=wrap;rounded=0;" vertex="1" parent="aWloOFPCooBZCWccYhwp-14">
          <mxGeometry x="78" y="6" width="120" height="20" as="geometry" />
        </mxCell>
        <mxCell id="aWloOFPCooBZCWccYhwp-16" value="" style="group;fillColor=#dae8fc;strokeColor=#6c8ebf;" vertex="1" connectable="0" parent="1">
          <mxGeometry x="418" y="210" width="120" height="60" as="geometry" />
        </mxCell>
        <mxCell id="aWloOFPCooBZCWccYhwp-1" value="" style="rounded=0;whiteSpace=wrap;html=1;" vertex="1" parent="aWloOFPCooBZCWccYhwp-16">
          <mxGeometry width="120" height="60" as="geometry" />
        </mxCell>
        <mxCell id="aWloOFPCooBZCWccYhwp-2" value="Assistant API" style="text;html=1;align=center;verticalAlign=middle;whiteSpace=wrap;rounded=0;" vertex="1" parent="aWloOFPCooBZCWccYhwp-16">
          <mxGeometry width="90" height="20" as="geometry" />
        </mxCell>
        <mxCell id="aWloOFPCooBZCWccYhwp-20" style="edgeStyle=orthogonalEdgeStyle;rounded=0;orthogonalLoop=1;jettySize=auto;html=1;exitX=0.5;exitY=1;exitDx=0;exitDy=0;" edge="1" parent="1" source="aWloOFPCooBZCWccYhwp-3" target="aWloOFPCooBZCWccYhwp-1">
          <mxGeometry relative="1" as="geometry" />
        </mxCell>
        <mxCell id="aWloOFPCooBZCWccYhwp-21" style="edgeStyle=orthogonalEdgeStyle;rounded=0;orthogonalLoop=1;jettySize=auto;html=1;" edge="1" parent="1" source="aWloOFPCooBZCWccYhwp-1" target="aWloOFPCooBZCWccYhwp-3">
          <mxGeometry relative="1" as="geometry" />
        </mxCell>
        <mxCell id="aWloOFPCooBZCWccYhwp-25" value="" style="group" vertex="1" connectable="0" parent="1">
          <mxGeometry x="660" y="76" width="120" height="60" as="geometry" />
        </mxCell>
        <mxCell id="aWloOFPCooBZCWccYhwp-23" value="" style="rounded=0;whiteSpace=wrap;html=1;" vertex="1" parent="aWloOFPCooBZCWccYhwp-25">
          <mxGeometry width="120" height="60" as="geometry" />
        </mxCell>
        <mxCell id="aWloOFPCooBZCWccYhwp-24" value="OpenAI API" style="text;html=1;align=center;verticalAlign=middle;whiteSpace=wrap;rounded=0;" vertex="1" parent="aWloOFPCooBZCWccYhwp-25">
          <mxGeometry width="70" height="19" as="geometry" />
        </mxCell>
        <mxCell id="aWloOFPCooBZCWccYhwp-28" style="edgeStyle=orthogonalEdgeStyle;rounded=0;orthogonalLoop=1;jettySize=auto;html=1;exitX=1;exitY=0;exitDx=0;exitDy=0;entryX=0.25;entryY=1;entryDx=0;entryDy=0;" edge="1" parent="1" source="aWloOFPCooBZCWccYhwp-2" target="aWloOFPCooBZCWccYhwp-23">
          <mxGeometry relative="1" as="geometry" />
        </mxCell>
        <mxCell id="aWloOFPCooBZCWccYhwp-29" style="edgeStyle=orthogonalEdgeStyle;rounded=0;orthogonalLoop=1;jettySize=auto;html=1;exitX=0.25;exitY=1;exitDx=0;exitDy=0;entryX=1;entryY=0;entryDx=0;entryDy=0;" edge="1" parent="1" source="aWloOFPCooBZCWccYhwp-23" target="aWloOFPCooBZCWccYhwp-2">
          <mxGeometry relative="1" as="geometry" />
        </mxCell>
        <mxCell id="aWloOFPCooBZCWccYhwp-30" value="" style="image;aspect=fixed;html=1;points=[];align=center;fontSize=12;image=img/lib/azure2/ai_machine_learning/Cognitive_Services.svg;" vertex="1" parent="1">
          <mxGeometry x="592" y="82" width="68" height="48" as="geometry" />
        </mxCell>
        <mxCell id="aWloOFPCooBZCWccYhwp-31" value="" style="points=[[0.35,0,0],[0.98,0.51,0],[1,0.71,0],[0.67,1,0],[0,0.795,0],[0,0.65,0]];verticalLabelPosition=bottom;sketch=0;html=1;verticalAlign=top;aspect=fixed;align=center;pointerEvents=1;shape=mxgraph.cisco19.user;fillColor=#005073;strokeColor=none;" vertex="1" parent="1">
          <mxGeometry x="40" y="290" width="50" height="50" as="geometry" />
        </mxCell>
        <mxCell id="aWloOFPCooBZCWccYhwp-32" style="edgeStyle=orthogonalEdgeStyle;rounded=0;orthogonalLoop=1;jettySize=auto;html=1;entryX=0.5;entryY=0.84;entryDx=0;entryDy=0;entryPerimeter=0;" edge="1" parent="1" source="aWloOFPCooBZCWccYhwp-31" target="aWloOFPCooBZCWccYhwp-10">
          <mxGeometry relative="1" as="geometry" />
        </mxCell>
        <mxCell id="aWloOFPCooBZCWccYhwp-33" value="Speaker" style="strokeColor=#dddddd;shadow=1;strokeWidth=1;rounded=1;absoluteArcSize=1;arcSize=2;labelPosition=center;verticalLabelPosition=middle;align=center;verticalAlign=bottom;spacingLeft=0;fontColor=#999999;fontSize=12;whiteSpace=wrap;spacingBottom=2;html=1;" vertex="1" parent="1">
          <mxGeometry x="215" y="380" width="70" height="85" as="geometry" />
        </mxCell>
        <mxCell id="aWloOFPCooBZCWccYhwp-34" value="" style="sketch=0;dashed=0;connectable=0;html=1;fillColor=#757575;strokeColor=none;shape=mxgraph.gcp2.speaker;part=1;" vertex="1" parent="aWloOFPCooBZCWccYhwp-33">
          <mxGeometry x="0.5" width="35" height="50" relative="1" as="geometry">
            <mxPoint x="-17.5" y="10" as="offset" />
          </mxGeometry>
        </mxCell>
        <mxCell id="aWloOFPCooBZCWccYhwp-36" style="edgeStyle=orthogonalEdgeStyle;rounded=0;orthogonalLoop=1;jettySize=auto;html=1;exitX=0.5;exitY=1;exitDx=0;exitDy=0;entryX=1;entryY=0.5;entryDx=0;entryDy=0;" edge="1" parent="1" source="aWloOFPCooBZCWccYhwp-1" target="aWloOFPCooBZCWccYhwp-33">
          <mxGeometry relative="1" as="geometry" />
        </mxCell>
        <mxCell id="aWloOFPCooBZCWccYhwp-37" value="Get Calendar info JIT" style="text;html=1;align=center;verticalAlign=middle;whiteSpace=wrap;rounded=0;" vertex="1" parent="1">
          <mxGeometry x="320" y="106" width="140" height="30" as="geometry" />
        </mxCell>
        <mxCell id="aWloOFPCooBZCWccYhwp-38" value="Translate calendar JSON into human readable text" style="text;html=1;align=center;verticalAlign=middle;whiteSpace=wrap;rounded=0;" vertex="1" parent="1">
          <mxGeometry x="592" y="180" width="148" height="30" as="geometry" />
        </mxCell>
        <mxCell id="aWloOFPCooBZCWccYhwp-39" style="edgeStyle=orthogonalEdgeStyle;rounded=0;orthogonalLoop=1;jettySize=auto;html=1;exitX=0;exitY=0.5;exitDx=0;exitDy=0;entryX=0.67;entryY=1;entryDx=0;entryDy=0;entryPerimeter=0;" edge="1" parent="1" source="aWloOFPCooBZCWccYhwp-33" target="aWloOFPCooBZCWccYhwp-31">
          <mxGeometry relative="1" as="geometry" />
        </mxCell>
        <mxCell id="aWloOFPCooBZCWccYhwp-40" value="Play Calendar audio file" style="text;html=1;align=center;verticalAlign=middle;whiteSpace=wrap;rounded=0;" vertex="1" parent="1">
          <mxGeometry x="354" y="380" width="120" height="30" as="geometry" />
        </mxCell>
        <mxCell id="aWloOFPCooBZCWccYhwp-43" value="" style="group" vertex="1" connectable="0" parent="1">
          <mxGeometry x="700" y="330" width="120" height="60" as="geometry" />
        </mxCell>
        <mxCell id="aWloOFPCooBZCWccYhwp-41" value="" style="rounded=0;whiteSpace=wrap;html=1;" vertex="1" parent="aWloOFPCooBZCWccYhwp-43">
          <mxGeometry width="120" height="60" as="geometry" />
        </mxCell>
        <mxCell id="aWloOFPCooBZCWccYhwp-42" value="Elven Labs" style="text;html=1;align=center;verticalAlign=middle;whiteSpace=wrap;rounded=0;" vertex="1" parent="aWloOFPCooBZCWccYhwp-43">
          <mxGeometry width="70" height="20" as="geometry" />
        </mxCell>
        <mxCell id="aWloOFPCooBZCWccYhwp-44" style="edgeStyle=orthogonalEdgeStyle;rounded=0;orthogonalLoop=1;jettySize=auto;html=1;exitX=1;exitY=0.5;exitDx=0;exitDy=0;entryX=0;entryY=0.5;entryDx=0;entryDy=0;" edge="1" parent="1" source="aWloOFPCooBZCWccYhwp-1" target="aWloOFPCooBZCWccYhwp-41">
          <mxGeometry relative="1" as="geometry" />
        </mxCell>
        <mxCell id="aWloOFPCooBZCWccYhwp-45" style="edgeStyle=orthogonalEdgeStyle;rounded=0;orthogonalLoop=1;jettySize=auto;html=1;exitX=0;exitY=0.5;exitDx=0;exitDy=0;entryX=1;entryY=0.5;entryDx=0;entryDy=0;" edge="1" parent="1" source="aWloOFPCooBZCWccYhwp-41" target="aWloOFPCooBZCWccYhwp-1">
          <mxGeometry relative="1" as="geometry" />
        </mxCell>
        <mxCell id="aWloOFPCooBZCWccYhwp-46" value="Turn calendar human readable text into audio file" style="text;html=1;align=center;verticalAlign=middle;whiteSpace=wrap;rounded=0;" vertex="1" parent="1">
          <mxGeometry x="630" y="260" width="150" height="30" as="geometry" />
        </mxCell>
      </root>
    </mxGraphModel>
  </diagram>
</mxfile>
